<svg width="615" height="615" viewBox="0 0 615 615" fill="none" xmlns="http://www.w3.org/2000/svg">
<mask id="mask0_215_8" style="mask-type:alpha" maskUnits="userSpaceOnUse" x="0" y="0" width="615" height="615">
<rect width="615" height="615" fill="#D9D9D9"/>
</mask>
<g mask="url(#mask0_215_8)">
<path d="M490.365 218.357C484.341 216.288 478.267 214.372 472.147 212.61C473.175 208.406 474.121 204.252 474.961 200.172C488.753 133.166 479.737 79.1854 448.941 61.4123C419.414 44.3738 371.124 62.1403 322.356 104.619C317.549 108.813 312.849 113.128 308.261 117.56C305.189 114.613 302.063 111.723 298.884 108.892C247.772 63.4724 196.54 44.3295 165.777 62.1536C136.276 79.2451 127.541 129.991 139.958 193.494C141.193 199.783 142.588 206.04 144.141 212.258C136.889 214.32 129.891 216.516 123.194 218.852C63.2691 239.763 25 272.532 25 306.523C25 341.629 66.0836 376.841 128.498 398.192C133.558 399.916 138.661 401.513 143.8 402.983C142.131 409.68 140.649 416.423 139.356 423.203C127.519 485.604 136.763 535.151 166.184 552.134C196.571 569.672 247.573 551.647 297.233 508.199C301.26 504.667 305.198 501.034 309.044 497.305C314.013 502.104 319.115 506.763 324.343 511.277C372.449 552.705 419.957 569.433 449.35 552.404C479.708 534.814 489.575 481.588 476.765 416.831C475.756 411.757 474.625 406.709 473.371 401.691C476.953 400.628 480.469 399.535 483.896 398.398C548.782 376.883 591 342.098 591 306.523C591 272.408 551.495 239.418 490.365 218.357V218.357ZM476.292 375.429C473.197 376.454 470.022 377.443 466.785 378.405C459.622 355.709 449.955 331.576 438.125 306.64C449.414 282.3 458.709 258.474 465.671 235.926C471.461 237.603 477.079 239.371 482.496 241.237C534.873 259.284 566.821 285.964 566.821 306.523C566.821 328.421 532.317 356.848 476.292 375.429V375.429ZM453.046 421.53C458.711 450.164 459.518 476.054 455.766 496.294C452.396 514.481 445.618 526.605 437.234 531.462C419.398 541.796 381.253 528.364 340.114 492.933C335.251 488.736 330.505 484.405 325.882 479.944C341.832 462.487 357.77 442.194 373.327 419.654C400.689 417.224 426.539 413.25 449.982 407.827C451.111 412.37 452.133 416.939 453.046 421.53V421.53ZM217.962 529.676C200.535 535.834 186.655 536.011 178.264 531.17C160.411 520.865 152.989 481.081 163.113 427.717C164.316 421.412 165.694 415.14 167.245 408.911C190.429 414.045 216.091 417.736 243.518 419.962C259.18 442.016 275.579 462.288 292.106 480.039C288.593 483.44 284.998 486.754 281.323 489.979C259.362 509.19 237.356 522.821 217.962 529.676V529.676ZM136.321 375.294C108.722 365.852 85.929 353.582 70.3065 340.193C56.2671 328.162 49.181 316.215 49.181 306.523C49.181 285.895 79.9064 259.585 131.154 241.704C137.373 239.535 143.882 237.488 150.637 235.568C157.72 258.625 167.011 282.733 178.222 307.112C166.865 331.851 157.442 356.344 150.289 379.673C145.598 378.328 140.94 376.868 136.321 375.294V375.294ZM163.688 188.845C153.051 134.439 160.115 93.3981 177.893 83.0976C196.827 72.1266 238.698 87.7688 282.831 126.988C285.709 129.552 288.54 132.167 291.323 134.833C274.878 152.506 258.63 172.627 243.107 194.551C216.487 197.021 191.006 200.986 167.579 206.299C166.136 200.515 164.838 194.696 163.688 188.847V188.845ZM407.835 249.183C402.301 239.617 396.563 230.171 390.623 220.853C408.682 223.138 425.984 226.172 442.233 229.881C437.355 245.53 431.275 261.889 424.118 278.662C418.887 268.728 413.458 258.9 407.835 249.183V249.183ZM308.272 152.128C319.424 164.221 330.594 177.721 341.58 192.37C319.293 191.316 296.97 191.312 274.683 192.356C285.681 177.843 296.945 164.36 308.272 152.128ZM208.07 249.349C202.517 258.987 197.189 268.754 192.092 278.642C185.052 261.929 179.027 245.494 174.108 229.624C190.257 226.008 207.478 223.052 225.421 220.808C219.415 230.184 213.63 239.699 208.07 249.347V249.349ZM225.937 393.959C207.398 391.888 189.918 389.084 173.774 385.566C178.771 369.413 184.928 352.629 192.12 335.557C197.238 345.452 202.588 355.225 208.165 364.868C213.9 374.781 219.839 384.491 225.937 393.959ZM308.94 462.622C297.478 450.248 286.048 436.558 274.885 421.834C285.723 422.258 296.771 422.475 308 422.475C319.537 422.475 330.941 422.216 342.166 421.716C331.144 436.706 320.016 450.416 308.94 462.622ZM424.346 334.685C431.912 351.945 438.288 368.64 443.351 384.517C426.942 388.266 409.223 391.284 390.554 393.525C396.537 384.034 402.33 374.424 407.93 364.702C413.624 354.819 419.097 344.811 424.346 334.685V334.685ZM386.986 352.611C378.412 367.517 369.357 382.14 359.833 396.457C342.583 397.68 325.294 398.288 308 398.278C290.385 398.278 273.253 397.73 256.755 396.659C246.983 382.375 237.755 367.726 229.089 352.744H229.092C220.467 337.841 212.411 322.615 204.942 307.1C212.392 291.582 220.424 276.349 229.019 261.435L229.016 261.437C237.608 246.519 246.763 231.933 256.461 217.71C273.293 216.436 290.553 215.772 307.998 215.772H308C325.524 215.772 342.807 216.443 359.634 217.726C369.234 231.927 378.331 246.463 386.906 261.307C395.53 276.188 403.667 291.346 411.306 306.758C403.746 322.326 395.634 337.62 386.986 352.611V352.611ZM436.865 82.3762C455.817 93.3163 463.188 137.433 451.28 195.286C450.519 198.977 449.666 202.736 448.737 206.549C425.253 201.123 399.754 197.089 373.057 194.582C357.505 172.417 341.39 152.265 325.212 134.819C329.452 130.729 333.793 126.745 338.23 122.87C380.017 86.4765 419.071 72.1067 436.865 82.3762V82.3762ZM308 255.939C335.913 255.939 358.542 278.586 358.542 306.523C358.542 334.459 335.913 357.107 308 357.107C280.087 357.107 257.458 334.459 257.458 306.523C257.458 278.586 280.087 255.939 308 255.939V255.939Z" fill="#00D8FF"/>
</g>
</svg>
