<svg width="615" height="615" viewBox="0 0 615 615" fill="none" xmlns="http://www.w3.org/2000/svg">
<mask id="mask0_215_14" style="mask-type:alpha" maskUnits="userSpaceOnUse" x="0" y="0" width="615" height="615">
<rect width="615" height="615" fill="#D9D9D9"/>
</mask>
<g mask="url(#mask0_215_14)">
<path d="M496.675 234.932C474.964 227.456 455.8 214.014 441.381 196.148C425.488 176.242 405.253 160.234 382.221 149.348C359.19 138.462 333.973 132.987 308.5 133.342C274.234 130.915 240.311 141.482 213.486 162.936C186.662 184.39 168.904 215.159 163.75 249.114C173.902 232.131 189.181 218.807 207.389 211.057C225.597 203.308 245.794 201.533 265.075 205.989C286.75 213.682 305.882 227.202 320.37 245.062C336.349 264.809 356.623 280.652 379.65 291.385C402.676 302.118 427.848 307.458 453.25 307C487.516 309.426 521.439 298.86 548.264 277.406C575.088 255.951 592.846 225.183 598 191.228C588.032 208.413 572.802 221.939 554.557 229.809C536.312 237.678 516.019 239.474 496.675 234.932ZM120.325 379.068C142.036 386.544 161.2 399.986 175.619 417.852C191.512 437.758 211.747 453.766 234.779 464.652C257.81 475.538 283.027 481.013 308.5 480.658C342.766 483.085 376.689 472.518 403.514 451.064C430.338 429.61 448.096 398.841 453.25 364.886C443.098 381.869 427.819 395.193 409.611 402.943C391.403 410.692 371.206 412.467 351.925 408.011C330.25 400.318 311.118 386.798 296.631 368.938C280.608 349.24 260.326 333.432 237.309 322.703C214.293 311.975 189.142 306.606 163.75 307C129.484 304.574 95.5607 315.14 68.7363 336.594C41.9118 358.049 24.1543 388.817 19 422.772C28.9677 405.587 44.1983 392.061 62.4433 384.191C80.6884 376.322 100.981 374.526 120.325 379.068Z" fill="#38BDF8"/>
</g>
</svg>
