<svg width="1440" height="678" viewBox="0 0 1440 678" fill="none" xmlns="http://www.w3.org/2000/svg">
<mask id="mask0_39_67" style="mask-type:alpha" maskUnits="userSpaceOnUse" x="0" y="0" width="1440" height="678">
<rect width="1440" height="678" fill="#FBFCFF"/>
</mask>
<g mask="url(#mask0_39_67)">
<rect width="1440" height="678" fill="white"/>
<path d="M786.23 402L757 431.23" stroke="#BDBDBD" stroke-miterlimit="10"/>
<path d="M786.23 431.23L757 402" stroke="#BDBDBD" stroke-miterlimit="10"/>
<path d="M242.23 487L213 516.23" stroke="#BDBDBD" stroke-miterlimit="10"/>
<path d="M242.23 516.23L213 487" stroke="#BDBDBD" stroke-miterlimit="10"/>
<path d="M777.23 239L748 268.23" stroke="#BDBDBD" stroke-miterlimit="10"/>
<path d="M777.23 268.23L748 239" stroke="#BDBDBD" stroke-miterlimit="10"/>
<path d="M60.2486 529.061C62.8335 518.115 56.0549 507.145 45.1082 504.56C34.1615 501.975 23.192 508.754 20.6071 519.701C18.0223 530.648 24.801 541.617 35.7477 544.202C46.6944 546.787 57.6638 540.008 60.2486 529.061Z" stroke="#BDBDBD" stroke-miterlimit="10" stroke-dasharray="5 5"/>
<path d="M705.664 377.148L503 579.793" stroke="#BDBDBD" stroke-miterlimit="10"/>
<path d="M657.417 321L597.762 380.655" stroke="#BDBDBD" stroke-miterlimit="10"/>
<path d="M710.038 504.357L602.791 611.605" stroke="#BDBDBD" stroke-miterlimit="10"/>
<path d="M635.47 469.27L558.724 546.035" stroke="#BDBDBD" stroke-miterlimit="10"/>
<path d="M257.516 630L190 697.497" stroke="#BDBDBD" stroke-miterlimit="10"/>
<path d="M257.516 697.497L190 630" stroke="#BDBDBD" stroke-miterlimit="10"/>
<path d="M44.6944 778.99C99.754 778.99 144.389 734.355 144.389 679.295C144.389 624.235 99.754 579.601 44.6944 579.601C-10.3653 579.601 -55 624.235 -55 679.295C-55 734.355 -10.3653 778.99 44.6944 778.99Z" stroke="#BDBDBD" stroke-miterlimit="10" stroke-dasharray="5 5"/>
<path d="M1217.65 193.148L1015 395.793" stroke="#BDBDBD" stroke-miterlimit="10"/>
<path d="M1169.4 137L1109.74 196.655" stroke="#BDBDBD" stroke-miterlimit="10"/>
<path d="M1222.04 320.357L1114.79 427.605" stroke="#BDBDBD" stroke-miterlimit="10"/>
<path d="M1147.47 285.251L1070.7 362.016" stroke="#BDBDBD" stroke-miterlimit="10"/>
<path d="M1384.73 189.656L1355.5 218.886" stroke="#BDBDBD" stroke-miterlimit="10"/>
<path d="M1384.73 218.886L1355.5 189.656" stroke="#BDBDBD" stroke-miterlimit="10"/>
<path d="M1067.52 -22.8156L1000 44.7007" stroke="#BDBDBD" stroke-miterlimit="10"/>
<path d="M1067.52 44.7007L1000 -22.8156" stroke="#BDBDBD" stroke-miterlimit="10"/>
<path d="M1455.06 171.832C1474.44 163.918 1483.74 141.792 1475.82 122.413C1467.91 103.034 1445.78 93.7407 1426.4 101.655C1407.02 109.57 1397.73 131.695 1405.64 151.074C1413.56 170.453 1435.68 179.747 1455.06 171.832Z" stroke="#BDBDBD" stroke-miterlimit="10" stroke-dasharray="5 5"/>
<path d="M1461.9 57.1673C1512.49 35.4187 1535.86 -23.2179 1514.11 -73.8012C1492.37 -124.384 1433.73 -147.76 1383.15 -126.011C1332.56 -104.263 1309.19 -45.626 1330.94 4.95736C1352.68 55.5407 1411.32 78.9159 1461.9 57.1673Z" stroke="#BDBDBD" stroke-miterlimit="10" stroke-dasharray="5 5"/>
<path d="M1386 -53.1889C1399.19 -135.494 1343.17 -212.913 1260.86 -226.108C1178.56 -239.303 1101.14 -183.278 1087.94 -100.973C1074.75 -18.6675 1130.77 58.7511 1213.08 71.9463C1295.38 85.1415 1372.8 29.1165 1386 -53.1889Z" stroke="#BDBDBD" stroke-miterlimit="10" stroke-dasharray="5 5"/>
</g>
</svg>
