<svg width="8" height="14" viewBox="0 0 8 14" fill="none" xmlns="http://www.w3.org/2000/svg">
<path fill-rule="evenodd" clip-rule="evenodd" d="M7.60959 0.410414C7.85957 0.673282 8 1.02976 8 1.40145C8 1.77315 7.85957 2.12962 7.60959 2.39249L3.21861 7.00846L7.60959 11.6244C7.85248 11.8888 7.98689 12.2429 7.98385 12.6104C7.98081 12.978 7.84058 13.3295 7.59335 13.5894C7.34612 13.8493 7.01168 13.9968 6.66206 13.9999C6.31244 14.0031 5.97561 13.8619 5.72412 13.6065L0.39041 7.9995C0.140431 7.73663 0 7.38016 0 7.00846C0 6.63677 0.140431 6.28029 0.39041 6.01742L5.72412 0.410414C5.97418 0.147626 6.31328 0 6.66686 0C7.02043 0 7.35954 0.147626 7.60959 0.410414V0.410414Z" fill="#FF125B"/>
</svg>
