<svg width="132" height="25" viewBox="0 0 132 25" fill="none" xmlns="http://www.w3.org/2000/svg">
<path d="M2.272 7.2H9.856C10.368 7.2 10.7947 7.37067 11.136 7.712C11.4773 8.05333 11.648 8.48 11.648 8.992C11.648 9.48267 11.4773 9.89867 11.136 10.24C10.7947 10.56 10.368 10.72 9.856 10.72H2.272C1.76 10.72 1.33333 10.5493 0.992 10.208C0.650667 9.86667 0.48 9.44 0.48 8.928C0.48 8.43733 0.650667 8.032 0.992 7.712C1.33333 7.37067 1.76 7.2 2.272 7.2ZM5.696 3.2C6.25067 3.2 6.69867 3.392 7.04 3.776C7.40267 4.13867 7.584 4.59733 7.584 5.152V19.392C7.584 19.6907 7.63733 19.936 7.744 20.128C7.872 20.32 8.032 20.4587 8.224 20.544C8.43733 20.6293 8.66133 20.672 8.896 20.672C9.152 20.672 9.38667 20.6293 9.6 20.544C9.81333 20.4373 10.0587 20.384 10.336 20.384C10.6347 20.384 10.9013 20.5227 11.136 20.8C11.392 21.0773 11.52 21.4613 11.52 21.952C11.52 22.5493 11.1893 23.04 10.528 23.424C9.888 23.808 9.19467 24 8.448 24C8 24 7.49867 23.968 6.944 23.904C6.41067 23.8187 5.89867 23.6373 5.408 23.36C4.93867 23.0613 4.544 22.6133 4.224 22.016C3.904 21.4187 3.744 20.5973 3.744 19.552V5.152C3.744 4.59733 3.92533 4.13867 4.288 3.776C4.672 3.392 5.14133 3.2 5.696 3.2ZM29.1898 6.56C29.7444 6.56 30.2031 6.74133 30.5658 7.104C30.9284 7.46667 31.1098 7.936 31.1098 8.512V22.048C31.1098 22.6027 30.9284 23.072 30.5658 23.456C30.2031 23.8187 29.7444 24 29.1898 24C28.6351 24 28.1764 23.8187 27.8138 23.456C27.4511 23.072 27.2698 22.6027 27.2698 22.048V20.48L27.9738 20.768C27.9738 21.0453 27.8244 21.3867 27.5258 21.792C27.2271 22.176 26.8218 22.56 26.3098 22.944C25.7978 23.328 25.1898 23.6587 24.4858 23.936C23.8031 24.192 23.0564 24.32 22.2458 24.32C20.7738 24.32 19.4404 23.9467 18.2458 23.2C17.0511 22.432 16.1018 21.3867 15.3978 20.064C14.7151 18.72 14.3738 17.184 14.3738 15.456C14.3738 13.7067 14.7151 12.1707 15.3978 10.848C16.1018 9.504 17.0404 8.45867 18.2138 7.712C19.3871 6.944 20.6884 6.56 22.1178 6.56C23.0351 6.56 23.8778 6.69867 24.6458 6.976C25.4138 7.25333 26.0751 7.60533 26.6298 8.032C27.2058 8.45867 27.6431 8.896 27.9418 9.344C28.2618 9.77067 28.4218 10.1333 28.4218 10.432L27.2698 10.848V8.512C27.2698 7.95733 27.4511 7.49867 27.8138 7.136C28.1764 6.752 28.6351 6.56 29.1898 6.56ZM22.7258 20.8C23.6644 20.8 24.4858 20.5653 25.1898 20.096C25.8938 19.6267 26.4378 18.9867 26.8218 18.176C27.2271 17.3653 27.4298 16.4587 27.4298 15.456C27.4298 14.432 27.2271 13.5147 26.8218 12.704C26.4378 11.8933 25.8938 11.2533 25.1898 10.784C24.4858 10.3147 23.6644 10.08 22.7258 10.08C21.8084 10.08 20.9978 10.3147 20.2938 10.784C19.5898 11.2533 19.0351 11.8933 18.6298 12.704C18.2458 13.5147 18.0538 14.432 18.0538 15.456C18.0538 16.4587 18.2458 17.3653 18.6298 18.176C19.0351 18.9867 19.5898 19.6267 20.2938 20.096C20.9978 20.5653 21.8084 20.8 22.7258 20.8ZM38.8835 22.048C38.8835 22.6027 38.7022 23.072 38.3395 23.456C37.9768 23.8187 37.5182 24 36.9635 24C36.4088 24 35.9502 23.8187 35.5875 23.456C35.2248 23.072 35.0435 22.6027 35.0435 22.048V8.832C35.0435 8.27733 35.2248 7.81867 35.5875 7.456C35.9502 7.072 36.4088 6.88 36.9635 6.88C37.5182 6.88 37.9768 7.072 38.3395 7.456C38.7022 7.81867 38.8835 8.27733 38.8835 8.832V22.048ZM36.9315 4.8C36.2062 4.8 35.6942 4.68267 35.3955 4.448C35.0968 4.21333 34.9475 3.79733 34.9475 3.2V2.592C34.9475 1.97333 35.1075 1.55733 35.4275 1.344C35.7688 1.10933 36.2808 0.991999 36.9635 0.991999C37.7102 0.991999 38.2328 1.10933 38.5315 1.344C38.8302 1.57867 38.9795 1.99467 38.9795 2.592V3.2C38.9795 3.81867 38.8195 4.24533 38.4995 4.48C38.1795 4.69333 37.6568 4.8 36.9315 4.8ZM46.99 22.048C46.99 22.6027 46.798 23.072 46.414 23.456C46.0513 23.8187 45.5927 24 45.038 24C44.5047 24 44.0567 23.8187 43.694 23.456C43.3313 23.072 43.15 22.6027 43.15 22.048V2.272C43.15 1.71733 43.3313 1.25867 43.694 0.895998C44.078 0.511999 44.5473 0.32 45.102 0.32C45.6567 0.32 46.1047 0.511999 46.446 0.895998C46.8087 1.25867 46.99 1.71733 46.99 2.272V22.048Z" fill="#38BDF8"/>
<path d="M68.767 1.6C69.279 1.6 69.695 1.77067 70.015 2.112C70.335 2.45333 70.495 2.88 70.495 3.392V22.048C70.495 22.6027 70.303 23.072 69.919 23.456C69.5563 23.8187 69.0977 24 68.543 24C68.2657 24 67.9777 23.9573 67.679 23.872C67.4017 23.7653 67.1883 23.6267 67.039 23.456L54.463 7.488L55.295 6.976V22.208C55.295 22.72 55.1243 23.1467 54.783 23.488C54.463 23.8293 54.0363 24 53.503 24C52.991 24 52.575 23.8293 52.255 23.488C51.935 23.1467 51.775 22.72 51.775 22.208V3.552C51.775 2.99733 51.9563 2.53867 52.319 2.176C52.703 1.792 53.1723 1.6 53.727 1.6C54.0257 1.6 54.335 1.664 54.655 1.792C54.975 1.89867 55.2097 2.06933 55.359 2.304L67.551 17.856L67.007 18.24V3.392C67.007 2.88 67.167 2.45333 67.487 2.112C67.807 1.77067 68.2337 1.6 68.767 1.6ZM77.2583 1.6H87.9783C88.5329 1.6 88.9916 1.78133 89.3542 2.144C89.7383 2.48533 89.9303 2.93333 89.9303 3.488C89.9303 4.02133 89.7383 4.45867 89.3542 4.8C88.9916 5.12 88.5329 5.28 87.9783 5.28H79.0183L79.3063 4.736V10.976L79.0503 10.72H86.5383C87.0929 10.72 87.5516 10.9013 87.9143 11.264C88.2983 11.6053 88.4903 12.0533 88.4903 12.608C88.4903 13.1413 88.2983 13.5787 87.9143 13.92C87.5516 14.24 87.0929 14.4 86.5383 14.4H79.1463L79.3063 14.144V20.608L79.0503 20.32H87.9783C88.5329 20.32 88.9916 20.512 89.3542 20.896C89.7383 21.2587 89.9303 21.6853 89.9303 22.176C89.9303 22.7093 89.7383 23.1467 89.3542 23.488C88.9916 23.8293 88.5329 24 87.9783 24H77.2583C76.7036 24 76.2343 23.8187 75.8503 23.456C75.4876 23.072 75.3063 22.6027 75.3063 22.048V3.552C75.3063 2.99733 75.4876 2.53867 75.8503 2.176C76.2343 1.792 76.7036 1.6 77.2583 1.6ZM108.947 1.568C109.437 1.568 109.853 1.76 110.195 2.144C110.557 2.528 110.739 2.93333 110.739 3.36C110.739 3.76533 110.6 4.14933 110.323 4.512L103.891 12.992L101.715 10.016L107.379 2.496C107.827 1.87733 108.349 1.568 108.947 1.568ZM94.6748 1.504C95.2934 1.504 95.8161 1.78133 96.2428 2.336L110.323 21.056C110.579 21.3973 110.707 21.792 110.707 22.24C110.707 22.8373 110.493 23.3067 110.067 23.648C109.64 23.9893 109.213 24.16 108.787 24.16C108.168 24.16 107.645 23.8827 107.219 23.328L93.1388 4.608C92.8614 4.26667 92.7228 3.88267 92.7228 3.456C92.7228 2.90133 92.9254 2.44267 93.3307 2.08C93.7574 1.696 94.2054 1.504 94.6748 1.504ZM94.3868 24.16C93.9174 24.16 93.5121 23.9893 93.1708 23.648C92.8294 23.2853 92.6588 22.8907 92.6588 22.464C92.6588 21.9947 92.8188 21.5573 93.1388 21.152L99.6348 12.352L101.747 15.456L95.9868 23.264C95.5601 23.8613 95.0268 24.16 94.3868 24.16ZM122.172 24C121.574 24 121.084 23.8187 120.7 23.456C120.316 23.072 120.124 22.6027 120.124 22.048V3.488H124.284V22.048C124.284 22.6027 124.081 23.072 123.676 23.456C123.292 23.8187 122.79 24 122.172 24ZM115.1 5.28C114.545 5.28 114.076 5.10933 113.692 4.768C113.329 4.42667 113.148 3.97867 113.148 3.424C113.148 2.86933 113.329 2.432 113.692 2.112C114.076 1.77067 114.545 1.6 115.1 1.6H129.308C129.862 1.6 130.321 1.77067 130.684 2.112C131.068 2.45333 131.26 2.90133 131.26 3.456C131.26 4.01067 131.068 4.45867 130.684 4.8C130.321 5.12 129.862 5.28 129.308 5.28H115.1Z" fill="black"/>
</svg>
